<?xml version="1.0" standalone="no"?>
<!DOCTYPE svg PUBLIC "-//W3C//DTD SVG 20010904//EN"
 "http://www.w3.org/TR/2001/REC-SVG-20010904/DTD/svg10.dtd">
<svg version="1.0" xmlns="http://www.w3.org/2000/svg"
 width="1024.000000pt" height="373.000000pt" viewBox="0 0 1024.000000 373.000000"
 preserveAspectRatio="xMidYMid meet">

<g transform="translate(0.000000,373.000000) scale(0.100000,-0.100000)"
fill="#000000" stroke="none">
<path d="M40 1786 c0 -1209 -1 -1194 55 -1326 38 -90 93 -167 171 -238 79 -73
161 -120 275 -159 l84 -28 470 1 c450 0 474 1 575 23 372 80 586 291 657 647
13 65 17 137 17 269 0 203 -13 284 -64 393 -40 86 -149 194 -243 241 -37 19
-70 38 -73 43 -3 4 9 28 26 53 83 121 119 248 127 445 12 315 -93 518 -327
634 -107 53 -235 90 -360 106 -51 6 -343 10 -737 10 l-653 0 0 -1114z m1283
595 c60 -29 96 -65 126 -125 19 -39 24 -64 24 -136 0 -78 -3 -93 -27 -134 -32
-54 -83 -91 -146 -105 -25 -6 -175 -11 -337 -11 l-293 0 0 271 0 270 303 -3
c294 -3 303 -4 350 -27z m180 -1070 c66 -33 129 -95 164 -161 27 -52 28 -61
28 -190 0 -134 0 -135 -32 -190 -40 -68 -83 -103 -162 -130 -55 -18 -84 -20
-355 -20 -328 0 -363 5 -423 63 -57 54 -63 89 -63 389 l0 269 398 -3 c396 -3
397 -3 445 -27z"/>
<path d="M3485 2095 c-445 -72 -766 -405 -817 -848 -11 -102 -4 -448 11 -512
40 -168 90 -276 179 -380 122 -144 276 -231 521 -293 l106 -27 610 0 610 0 0
630 c0 681 -1 700 -55 840 -45 119 -107 213 -199 306 -155 156 -353 256 -568
288 -95 14 -298 12 -398 -4z m360 -601 c67 -23 143 -75 180 -121 60 -76 64
-106 65 -446 l0 -309 -262 4 c-312 5 -341 12 -433 104 -45 45 -58 66 -77 126
-20 64 -23 93 -22 233 0 156 1 162 31 225 43 93 116 157 220 191 72 24 221 20
298 -7z"/>
<path d="M9823 2051 c-79 -20 -152 -82 -196 -165 -32 -62 -31 -192 3 -261 90
-183 337 -228 483 -87 65 62 91 124 91 217 1 68 -3 88 -26 130 -56 108 -143
166 -257 171 -36 2 -80 -1 -98 -5z m163 -36 c178 -53 249 -278 134 -424 -55
-70 -123 -101 -217 -101 -88 0 -127 15 -187 70 -55 51 -81 113 -81 195 0 79
25 141 79 194 73 72 172 96 272 66z"/>
<path d="M9800 1761 c0 -163 2 -191 15 -191 12 0 15 15 15 73 0 80 8 96 46 89
27 -5 36 -15 90 -104 24 -38 42 -58 55 -58 10 0 19 3 19 6 0 8 -70 124 -87
145 -17 21 -17 39 1 39 8 0 24 12 35 26 29 37 28 95 -3 131 -22 25 -31 28
-105 31 l-81 4 0 -191z m131 146 c62 -42 41 -127 -34 -141 -58 -11 -67 -2 -67
69 0 35 3 70 6 79 9 23 55 20 95 -7z"/>
<path d="M7303 1373 l3 -638 26 -97 c81 -297 281 -487 598 -568 126 -32 224
-37 803 -39 l527 -1 0 990 0 990 -320 0 -320 0 0 -695 0 -695 -211 0 c-251 0
-323 12 -392 66 -85 66 -82 38 -85 722 l-3 602 -315 0 -315 0 4 -637z"/>
<path d="M5172 1093 l3 -828 23 -47 c31 -64 96 -126 162 -157 53 -24 63 -26
253 -27 l197 -1 0 883 0 884 -23 0 c-12 0 -32 7 -43 15 -12 8 -24 12 -27 8 -4
-3 -12 -1 -19 4 -7 6 -26 13 -43 16 -16 3 -43 11 -60 18 -16 7 -34 11 -39 10
-8 -2 -67 9 -161 29 -22 5 -82 12 -133 15 l-92 6 2 -828z"/>
<path d="M6152 924 l3 -669 23 -45 c33 -64 96 -125 156 -151 48 -22 65 -23
281 -23 l230 -1 1 136 c2 155 -6 249 -21 250 -5 0 -9 7 -7 15 2 8 -2 31 -8 52
-6 20 -18 64 -26 97 -8 33 -20 76 -28 95 -8 19 -22 62 -32 95 -9 33 -21 67
-25 75 -28 53 -58 134 -53 141 3 5 1 9 -4 9 -4 0 -16 15 -25 33 -9 17 -30 55
-47 82 -16 28 -34 60 -40 73 -5 12 -14 22 -20 22 -5 0 -10 6 -10 13 0 8 -9 22
-20 32 -11 10 -20 22 -20 27 0 5 -10 21 -22 35 -41 48 -238 243 -245 243 -3 0
-15 8 -25 17 -18 16 -19 1 -16 -653z"/>
</g>
</svg>
