<?xml version="1.0" encoding="UTF-8" standalone="no"?>
<svg
   xmlns:dc="http://purl.org/dc/elements/1.1/"
   xmlns:cc="http://creativecommons.org/ns#"
   xmlns:rdf="http://www.w3.org/1999/02/22-rdf-syntax-ns#"
   xmlns:svg="http://www.w3.org/2000/svg"
   xmlns="http://www.w3.org/2000/svg"
   xmlns:sodipodi="http://sodipodi.sourceforge.net/DTD/sodipodi-0.dtd"
   xmlns:inkscape="http://www.inkscape.org/namespaces/inkscape"
   fill="#000000"
   width="800px"
   height="800px"
   viewBox="0 0 512 512"
   version="1.1"
   id="svg858"
   sodipodi:docname="cog.svg"
   inkscape:version="1.0.1 (3bc2e813f5, 2020-09-07)">
  <metadata
     id="metadata864">
    <rdf:RDF>
      <cc:Work
         rdf:about="">
        <dc:format>image/svg+xml</dc:format>
        <dc:type
           rdf:resource="http://purl.org/dc/dcmitype/StillImage" />
      </cc:Work>
    </rdf:RDF>
  </metadata>
  <defs
     id="defs862" />
  <sodipodi:namedview
     pagecolor="#ffffff"
     bordercolor="#666666"
     borderopacity="1"
     objecttolerance="10"
     gridtolerance="10"
     guidetolerance="10"
     inkscape:pageopacity="0"
     inkscape:pageshadow="2"
     inkscape:window-width="3440"
     inkscape:window-height="1361"
     id="namedview860"
     showgrid="false"
     inkscape:zoom="0.64125"
     inkscape:cx="563.40166"
     inkscape:cy="659.77666"
     inkscape:window-x="-9"
     inkscape:window-y="-9"
     inkscape:window-maximized="1"
     inkscape:current-layer="svg858" />
  <title
     id="title854">ionicons-v5-m</title>
  <path
     id="path1194"
     style="fill:#353f40;fill-opacity:1;stroke:#000000;stroke-width:1.2352;stroke-miterlimit:4;stroke-dasharray:none;stroke-opacity:1"
     d="m 292.97911,2.0630321 c -5.48262,0.0717 -10.443,3.64397 -12.13641,9.0428599 l -10.49699,30.63891 c -0.97856,2.79197 -3.66295,4.61989 -6.6193,4.50754 h -12.04064 c -2.93152,0.0602 -5.57034,-1.76723 -6.54522,-4.53224 l -10.44758,-30.46601 c -1.9017,-6.2169699 -8.12746,-10.0518899 -14.5353,-8.9533299 l -14.16476,2.46989 c -6.3634,1.16771 -10.88148,6.8628199 -10.57111,13.3250099 l 0.49408,32.30608 c 0.0202,2.9777 -1.91872,5.61477 -4.76688,6.48344 -2.82784,1.09911 -8.96566,3.44551 -11.75664,4.48284 -2.46976,0.88915 -5.16205,-0.0864 -7.33555,-2.59337 l -20.08026,-24.69884 c -3.81548,-5.26157 -10.98342,-6.80064 -16.6223,-3.56897 l -12.42352,7.19972 c -5.67706,3.25843 -7.97904,10.27628 -5.33494,16.26418 l 11.42316,30.05848 c 1.02208,2.74928 0.1792,5.84434 -2.0992,7.69371 -3.00096,2.46988 -6.0759,4.939755 -9.13856,7.681325 -2.1584,1.952963 -5.33699,2.273093 -7.84185,0.790373 L 82.634534,83.288242 c -5.42464,-3.52869 -12.62736,-2.47024 -16.80752,2.46989 l -9.12624,10.978645 c -4.19741,4.949453 -4.00057,12.263903 0.45696,16.980433 l 21.0928,24.22956 c 1.92224,2.24186 2.14784,5.47836 0.55552,7.9654 -2.112,3.35904 -4.1247,6.89097 -5.95241,10.42291 -1.40256,2.60662 -4.32474,4.01259 -7.23677,3.48233 l -31.50339,-6.08828 c -6.31485,-1.52381 -12.76727,1.93638 -14.9922,8.03949 l -4.93977,13.43617 c -2.26016,6.0901 0.39136,12.90792 6.17472,15.86898 l 28.13197,15.62203 c 2.59904,1.43453 3.93401,4.41678 3.27248,7.31085 l -0.2976,1.56848 c -0.64224,3.44559 -1.23488,6.70572 -1.8032,10.17593 -0.40256,2.90064 -2.6256,5.21291 -5.50784,5.73013 l -31.72567,5.12501 c -6.4182401,0.78816 -11.2548501,6.21661 -11.2997401,12.68285 v 14.30061 c -0.0384,6.49984 4.8496,11.97376 11.3120601,12.67052 l 31.71331,5.11264 c 2.92704,0.47616 5.19008,2.82432 5.55725,5.7672 0.60512,3.90244 1.23488,7.92836 2.0992,11.75664 0.5712,2.8544 -0.73376,5.75684 -3.24803,7.22439 l -28.11958,15.64678 c -5.78253,2.94752 -8.43783,9.76112 -6.17469,15.84429 l 4.93974,13.46083 c 2.21984,6.10138 8.66826,9.56211 14.97987,8.03949 l 31.55274,-6.11296 c 2.89504,-0.52512 5.79837,0.87648 7.18736,3.47008 1.85216,3.45782 3.84077,6.95274 5.92771,10.39824 1.56192,2.51456 1.34336,5.74586 -0.54336,8.0271 l -20.99398,24.24186 c -4.46458,4.7017 -4.72928,11.9921 -0.6176,17.00522 l 9.15091,11.00326 c 4.12627,5.00813 11.37562,6.07578 16.77053,2.46976 l 27.625636,-16.58522 c 2.51456,-1.50688 5.71916,-1.19072 7.89129,0.77824 3.06272,2.68 6.17469,5.26087 9.10151,7.64432 2.30272,1.82048 3.16608,4.92 2.13632,7.669 l -11.44791,30.13257 c -2.57792,5.95143 -0.288,12.89008 5.32259,16.14067 l 12.48528,7.21207 c 5.61501,3.24221 12.77012,1.74208 16.60996,-3.48269 l 20.4383,-25.1311 c 1.72896,-2.13632 4.44579,-3.08736 6.45872,-2.27232 4.2976,1.77824 7.17504,2.77856 12.27533,4.48284 2.78816,0.91104 4.66288,3.52583 4.63104,6.45872 l -0.49408,32.17028 c -0.34368,6.50032 4.1832,12.2488 10.58342,13.43616 l 14.1401,2.46976 c 6.37433,1.11232 12.58441,-2.67744 14.51056,-8.85456 l 10.49705,-30.58916 c 0.97536,-2.79424 3.66173,-4.62396 6.6193,-4.50755 h 12.04064 c 2.93216,-0.064 5.57354,1.7648 6.54522,4.53226 l 10.45996,30.46598 c 1.66336,5.42912 6.6712,9.13997 12.34941,9.15095 0.73728,0.001 1.47328,-0.064 2.1984,-0.1984 l 14.1648,-2.46976 c 6.36339,-1.16768 10.88144,-6.86282 10.57111,-13.32503 l -0.49408,-32.30608 c -0.0197,-2.92096 1.85344,-5.51805 4.63104,-6.42169 4.74217,-1.59296 8.07651,-2.87712 11.00329,-4.01354 l 0.7408,-0.2848 c 3.82855,-1.3216 5.68074,0.2848 6.75514,1.61792 l 20.68523,25.47686 c 3.8388,5.2177 10.9854,6.71722 16.5976,3.48234 l 12.4359,-7.19914 c 5.6317,-3.25312 7.9227,-10.21635 5.3226,-16.17772 l -11.4106,-30.05776 c -1.0323,-2.74656 -0.1952,-5.84554 2.0867,-7.6937 3.0013,-2.46976 6.0759,-4.93974 9.1386,-7.68131 2.1728,-1.95872 5.3697,-2.26944 7.8789,-0.76576 l 27.6503,16.54819 c 5.4235,3.53453 12.6303,2.47552 16.8076,-2.46976 l 9.1386,-10.99094 c 4.1974,-4.94948 4.0006,-12.26391 -0.457,-16.98045 l -21.0669,-24.29114 c -1.9222,-2.24192 -2.1478,-5.47833 -0.5555,-7.96534 2.1117,-3.34669 4.1247,-6.87866 5.9524,-10.42295 1.4084,-2.60064 4.3258,-4.00454 7.2368,-3.4823 l 31.4663,6.13763 c 6.3149,1.52384 12.7672,-1.93664 14.9922,-8.03952 l 4.878,-13.43616 c 2.2586,-6.08656 -0.3949,-12.90029 -6.1747,-15.85664 l -28.1564,-15.64688 c -2.5604,-1.448 -3.8701,-4.40365 -3.2221,-7.27382 l 0.2976,-1.56864 c 0.6422,-3.4456 1.2349,-6.70573 1.8032,-10.17591 0.4026,-2.9008 2.6256,-5.21289 5.5078,-5.73014 l 31.7257,-5.11267 c 6.4349,-0.77664 11.2903,-6.21383 11.3367,-12.6952 v -14.46103 c -0.3448,-6.3631 -5.2295,-11.54982 -11.5604,-12.27532 l -31.6639,-5.12503 c -2.9252,-0.47975 -5.1862,-2.82634 -5.5573,-5.76716 -0.6051,-3.89016 -1.2349,-7.92833 -2.0992,-11.75665 -0.5709,-2.85478 0.7338,-5.75684 3.248,-7.22442 l 28.1316,-15.622 c 5.7825,-2.94765 8.4379,-9.76118 6.1747,-15.84432 l -4.8779,-13.46075 c -2.2154,-6.10527 -8.6675,-9.56809 -14.9799,-8.03945 l -31.5527,6.17471 c -2.8941,0.51731 -5.7927,-0.88243 -7.1874,-3.47009 -1.84,-3.44559 -3.8408,-6.95274 -5.9277,-10.39821 -1.5539,-2.51652 -1.3357,-5.74293 0.5433,-8.02712 l 20.9939,-24.25426 c 4.4117,-4.73688 4.6179,-12.01363 0.4817,-16.992803 l -9.1632,-11.003305 c -4.1292,-5.00275 -11.3742,-6.06977 -16.7705,-2.46988 l -27.6256,16.585258 c -2.5149,1.50681 -5.7192,1.19068 -7.8913,-0.778123 -3.0502,-2.67974 -6.1747,-5.260845 -9.1015,-7.644295 -2.305,-1.81904 -3.1651,-4.92302 -2.1242,-7.66898 l 11.4355,-30.13258 c 2.5779,-5.95141 0.288,-12.89011 -5.3226,-16.1407 l -12.4606,-7.27381 c -5.618,-3.23962 -12.7738,-1.73399 -16.61,3.49487 l -20.19128,25.3657 c -1.49824,2.27411 -4.39929,3.16521 -6.91568,2.12409 -0.75328,-0.3088 -7.1256,-2.91446 -12.07772,-4.56928 -2.78848,-0.90867 -4.66023,-3.52652 -4.61866,-6.45874 l 0.4816,-32.19494 c 0.35584,-6.50384 -4.17722,-12.2587899 -10.58352,-13.4361699 l -14.14003,-2.46989 c -0.7968,-0.1376 -1.59104,-0.1984 -2.3744,-0.18848 z M 257.65668,82.275592 a 174.22383,174.22383 0 0 1 0.33984,0 A 174.22383,174.22383 0 0 1 432.22065,256.49964 174.22383,174.22383 0 0 1 257.99665,430.72217 174.22383,174.22383 0 0 1 83.772614,256.49964 174.22383,174.22383 0 0 1 257.65707,82.275592 Z" />
</svg>
