<?xml version="1.0" encoding="UTF-8" standalone="no"?>
<svg
   xmlns:dc="http://purl.org/dc/elements/1.1/"
   xmlns:cc="http://creativecommons.org/ns#"
   xmlns:rdf="http://www.w3.org/1999/02/22-rdf-syntax-ns#"
   xmlns:svg="http://www.w3.org/2000/svg"
   xmlns="http://www.w3.org/2000/svg"
   xmlns:sodipodi="http://sodipodi.sourceforge.net/DTD/sodipodi-0.dtd"
   xmlns:inkscape="http://www.inkscape.org/namespaces/inkscape"
   width="800px"
   height="800px"
   viewBox="0 0 48 48"
   version="1.1"
   id="svg13"
   sodipodi:docname="delivery.svg"
   inkscape:version="1.0.1 (3bc2e813f5, 2020-09-07)">
  <metadata
     id="metadata19">
    <rdf:RDF>
      <cc:Work
         rdf:about="">
        <dc:format>image/svg+xml</dc:format>
        <dc:type
           rdf:resource="http://purl.org/dc/dcmitype/StillImage" />
        <dc:title>security-verified</dc:title>
      </cc:Work>
    </rdf:RDF>
  </metadata>
  <defs
     id="defs17" />
  <sodipodi:namedview
     pagecolor="#ffffff"
     bordercolor="#666666"
     borderopacity="1"
     objecttolerance="10"
     gridtolerance="10"
     guidetolerance="10"
     inkscape:pageopacity="0"
     inkscape:pageshadow="2"
     inkscape:window-width="3440"
     inkscape:window-height="1361"
     id="namedview15"
     showgrid="false"
     inkscape:zoom="0.45343222"
     inkscape:cx="-82.55283"
     inkscape:cy="205.30845"
     inkscape:window-x="-9"
     inkscape:window-y="-9"
     inkscape:window-maximized="1"
     inkscape:current-layer="svg13" />
  <title
     id="title2">security-verified</title>
  <circle
     style="fill:#353f40;fill-opacity:1;stroke-width:0.119527;stroke-linecap:round;paint-order:stroke fill markers"
     id="path846"
     cx="24.023394"
     cy="-24"
     r="23.999998"
     transform="scale(1,-1)" />
  <circle
     style="fill:#ffcc00;fill-opacity:1;stroke-width:0.105897;stroke-linecap:round;paint-order:stroke fill markers"
     id="path846-9"
     cx="24.023394"
     cy="-24"
     r="21.263155"
     transform="scale(1,-1)" />
  <g
     id="g889"
     transform="matrix(0.05052494,0,0,0.05052494,8.562762,8.5393684)"
     style="fill:#353f3f;fill-opacity:1">
    <path
       d="m 391.897,259.865 c -0.737,-6.115 -3.061,-11.692 -6.633,-16.349 L 409.788,91.318 c 0.913,-5.663 -2.72,-11.062 -8.308,-12.353 l -0.274,-0.062 c -5.588,-1.291 -11.219,1.971 -12.882,7.46 l -44.676,147.543 c -11.01,5.536 -18.653,16.821 -18.653,29.964 0,18.558 15.091,33.658 33.648,33.658 3.458,0 6.728,-0.675 9.869,-1.647 l 93.334,48.503 c 5.135,2.668 11.456,1.002 14.607,-3.852 l 0.141,-0.217 c 3.152,-4.852 2.104,-11.305 -2.424,-14.91 z m -49.874,4.005 c 0,-9.163 7.458,-16.621 16.621,-16.621 9.171,0 16.629,7.458 16.629,16.621 0,9.17 -7.458,16.629 -16.629,16.629 -9.163,0 -16.621,-7.458 -16.621,-16.629 z m 269.977,0 c 0,112.658 -73.93,208.333 -175.809,241.169 l -0.005,-36.076 c 82.756,-31.396 141.757,-111.467 141.757,-205.093 0,-120.92 -98.38,-219.299 -219.299,-219.299 -120.92,0 -219.299,98.379 -219.299,219.299 0,12.13 1.034,24.019 2.938,35.62 h -34.441 c -1.646,-11.646 -2.554,-23.527 -2.554,-35.62 0,-139.703 113.653,-253.356 253.356,-253.356 C 498.347,10.514 612,124.167 612,263.87 Z M 402.81,444.398 324.82,367.259 c -4.938,-4.939 -11.664,-7.664 -18.561,-7.664 h -39.336 v -14.729 c 0,-10.984 -8.939,-19.838 -19.923,-19.838 H 19.841 c -10.983,0 -19.838,8.854 -19.838,19.838 v 132.82 h 410.641 v -14.473 c -0.001,-7.065 -2.811,-13.877 -7.834,-18.815 z m -33.972,2.555 h -75.521 c -1.703,0 -3.065,-1.363 -3.065,-3.066 v -58.322 c 0,-1.703 1.361,-3.066 3.065,-3.066 h 14.389 c 0.767,0 1.618,0.342 2.214,0.852 l 61.047,58.324 c 2.043,1.87 0.68,5.278 -2.129,5.278 z m 41.814,41.707 v 43.941 c 0,10.961 -8.886,19.848 -19.848,19.848 h -21.237 c -3.837,-26.332 -26.53,-46.576 -53.919,-46.576 -27.325,0 -50.017,20.244 -53.854,46.576 H 154.151 c -3.837,-26.332 -26.53,-46.576 -53.854,-46.576 -27.324,0 -50.017,20.244 -53.854,46.576 H 19.848 C 8.886,552.447 0,543.562 0,532.602 V 488.66 Z m -94.943,30.492 c -22.732,0 -41.208,18.391 -41.208,41.123 0,22.734 18.476,41.211 41.208,41.211 22.733,0 41.124,-18.477 41.124,-41.211 0,-22.732 -18.391,-41.123 -41.124,-41.123 z m 0,61.729 c -11.408,0 -20.604,-9.195 -20.604,-20.605 0,-11.324 9.195,-20.604 20.604,-20.604 11.324,0 20.52,9.279 20.52,20.604 0,11.41 -9.196,20.605 -20.52,20.605 z M 100.3,519.152 c -22.732,0 -41.209,18.391 -41.209,41.123 0,22.734 18.477,41.211 41.209,41.211 22.733,0 41.124,-18.477 41.124,-41.211 0,-22.732 -18.391,-41.123 -41.124,-41.123 z m 0,61.729 c -11.409,0 -20.604,-9.195 -20.604,-20.605 0,-11.324 9.195,-20.604 20.604,-20.604 11.324,0 20.604,9.279 20.604,20.604 0,11.41 -9.28,20.605 -20.604,20.605 z"
       id="path887"
       style="fill:#353f3f;fill-opacity:1" />
  </g>
</svg>
