<?xml version="1.0" encoding="UTF-8" standalone="no"?>
<svg
   xmlns:dc="http://purl.org/dc/elements/1.1/"
   xmlns:cc="http://creativecommons.org/ns#"
   xmlns:rdf="http://www.w3.org/1999/02/22-rdf-syntax-ns#"
   xmlns:svg="http://www.w3.org/2000/svg"
   xmlns="http://www.w3.org/2000/svg"
   xmlns:sodipodi="http://sodipodi.sourceforge.net/DTD/sodipodi-0.dtd"
   xmlns:inkscape="http://www.inkscape.org/namespaces/inkscape"
   fill="#000000"
   height="800px"
   width="800px"
   version="1.1"
   id="Layer_1"
   viewBox="0 0 494.096 494.096"
   xml:space="preserve"
   sodipodi:docname="dividimg.svg"
   inkscape:version="1.0.1 (3bc2e813f5, 2020-09-07)"><metadata
   id="metadata31"><rdf:RDF><cc:Work
       rdf:about=""><dc:format>image/svg+xml</dc:format><dc:type
         rdf:resource="http://purl.org/dc/dcmitype/StillImage" /><dc:title></dc:title></cc:Work></rdf:RDF></metadata><defs
   id="defs29" /><sodipodi:namedview
   pagecolor="#ffffff"
   bordercolor="#666666"
   borderopacity="1"
   objecttolerance="10"
   gridtolerance="10"
   guidetolerance="10"
   inkscape:pageopacity="0"
   inkscape:pageshadow="2"
   inkscape:window-width="3440"
   inkscape:window-height="1361"
   id="namedview27"
   showgrid="false"
   inkscape:zoom="0.90686445"
   inkscape:cx="352.48109"
   inkscape:cy="451.82243"
   inkscape:window-x="-9"
   inkscape:window-y="-9"
   inkscape:window-maximized="1"
   inkscape:current-layer="Layer_1" />
<g
   id="g12"
   style="fill:#ffcd00;fill-opacity:1">
	<g
   id="g10"
   style="fill:#ffcd00;fill-opacity:1">
		<path
   d="M315.592,403.456c-2.4-8.496-11.232-13.488-19.728-11.072c-8.512,2.384-13.472,11.216-11.088,19.728    c0.96,3.392,1.44,6.944,1.44,10.592c0,21.728-17.664,39.392-39.392,39.392c-21.728,0-39.392-17.68-39.392-39.392    c0-3.584,0.48-7.152,1.44-10.592c2.368-8.512-2.608-17.328-11.12-19.696c-8.512-2.4-17.344,2.592-19.712,11.104    c-1.744,6.224-2.624,12.688-2.624,19.184c0,39.36,32.032,71.392,71.392,71.392s71.392-32.032,71.408-71.392    C318.216,416.144,317.336,409.68,315.592,403.456z"
   id="path8"
   style="fill:#ffcd00;fill-opacity:1" />
	</g>
</g><g
   id="g6">
	<g
   id="g4">
		<path
   d="M247.048,200.32c-114.016,0-200,85.984-200,200c0,8.848,7.168,16,16,16h368c8.832,0,16-7.152,16-16    C447.048,286.304,361.064,200.32,247.048,200.32z M79.72,384.32c7.568-87.696,76.944-152,167.312-152s159.76,64.304,167.328,152    H79.72z"
   id="path2" />
	</g>
</g>

<g
   id="g18">
	<g
   id="g16">
		<path
   d="M292.664,216.48l-5.248-78.496c-0.88-17.04-15.184-30.4-32.544-30.4h-15.6c-17.328,0-31.632,13.344-32.56,30.352    l-4.336,78.32c-0.496,8.832,6.256,16.384,15.088,16.864c8.752,0.496,16.368-6.256,16.864-15.072l4.944-78.448l16.208,0.32    l5.264,78.72c0.576,8.464,7.6,14.944,15.952,14.944c0.352,0,0.704-0.016,1.072-0.08    C286.584,232.912,293.256,225.296,292.664,216.48z"
   id="path14" />
	</g>
</g>
<g
   id="g24">
	<g
   id="g22">
		<path
   d="M247.048,0c-8.832,0-16,7.152-16,16v92.24c0,8.848,7.168,16,16,16c8.832,0,16-7.168,16-16V16    C263.048,7.152,255.88,0,247.048,0z"
   id="path20" />
	</g>
</g>
</svg>
