<?xml version="1.0" encoding="UTF-8" standalone="no"?>
<svg
   xmlns:dc="http://purl.org/dc/elements/1.1/"
   xmlns:cc="http://creativecommons.org/ns#"
   xmlns:rdf="http://www.w3.org/1999/02/22-rdf-syntax-ns#"
   xmlns:svg="http://www.w3.org/2000/svg"
   xmlns="http://www.w3.org/2000/svg"
   xmlns:sodipodi="http://sodipodi.sourceforge.net/DTD/sodipodi-0.dtd"
   xmlns:inkscape="http://www.inkscape.org/namespaces/inkscape"
   width="800px"
   height="800px"
   viewBox="0 0 48 48"
   version="1.1"
   id="svg13"
   sodipodi:docname="Garantee.svg"
   inkscape:version="1.0.1 (3bc2e813f5, 2020-09-07)">
  <metadata
     id="metadata19">
    <rdf:RDF>
      <cc:Work
         rdf:about="">
        <dc:format>image/svg+xml</dc:format>
        <dc:type
           rdf:resource="http://purl.org/dc/dcmitype/StillImage" />
        <dc:title>security-verified</dc:title>
      </cc:Work>
    </rdf:RDF>
  </metadata>
  <defs
     id="defs17" />
  <sodipodi:namedview
     pagecolor="#ffffff"
     bordercolor="#666666"
     borderopacity="1"
     objecttolerance="10"
     gridtolerance="10"
     guidetolerance="10"
     inkscape:pageopacity="0"
     inkscape:pageshadow="2"
     inkscape:window-width="3440"
     inkscape:window-height="1361"
     id="namedview15"
     showgrid="false"
     inkscape:zoom="0.45343222"
     inkscape:cx="-82.55283"
     inkscape:cy="205.30845"
     inkscape:window-x="-9"
     inkscape:window-y="-9"
     inkscape:window-maximized="1"
     inkscape:current-layer="svg13" />
  <title
     id="title2">security-verified</title>
  <circle
     style="fill:#353f40;fill-opacity:1;stroke-width:0.119527;stroke-linecap:round;paint-order:stroke fill markers"
     id="path846"
     cx="24.023394"
     cy="-24"
     r="23.999998"
     transform="scale(1,-1)" />
  <circle
     style="fill:#ffcc00;fill-opacity:1;stroke-width:0.105897;stroke-linecap:round;paint-order:stroke fill markers"
     id="path846-9"
     cx="24.023394"
     cy="-24"
     r="21.263155"
     transform="scale(1,-1)" />
  <g
     id="g2175"
     style="fill:#353f40;fill-opacity:1"
     transform="matrix(0.65966165,0,0,0.65966165,70.810361,27.92801)">
    <path
       d="m -86.353673,-23.09724 h 27.428437 v 13.7142191 h 3.428437 V -26.526146 H -89.78258 v 41.143125 h 18.857344 v -3.428906 h -15.428437 z"
       fill="#0f1f3c"
       id="path1576"
       style="fill:#353f40;fill-opacity:1;stroke-width:0.046875" />
    <path
       d="m -61.497268,-7.3833339 -9.428437,4.714688 v 4.13625 c 0,5.169844 2.920781,9.8957809 7.544531,12.2076559 l 1.883907,0.941719 1.883906,-0.941719 c 4.62375,-2.311875 7.544531,-7.0378119 7.544531,-12.2076559 v -4.13625 z m 6,8.850469 c 0,3.89625 -2.164687,7.39875 -5.649375,9.1410939 l -0.350625,0.175312 -0.350625,-0.175312 C -65.33258,8.8658851 -67.497268,5.3629161 -67.497268,1.4671351 v -2.01703102 l 6,-2.99999998 6,2.99999998 z"
       fill="#0f1f3c"
       id="path1578"
       style="fill:#353f40;fill-opacity:1;stroke-width:0.046875" />
    <path
       d="m -64.088049,2.0708851 -1.702969,1.927031 4.371094,3.863907 5.340469,-6.144844 -1.940156,-1.68750002 -3.639375,4.18781202 z M -82.925705,-17.954584 h 20.571562 v 3.428438 h -20.571562 z m 0,8.5715631 h 13.714219 v 3.428437 h -13.714219 z m 0,8.57109398 h 6.857344 V 2.6165101 h -6.857344 z"
       fill="#0f1f3c"
       id="path1580"
       style="fill:#353f40;fill-opacity:1;stroke-width:0.046875" />
  </g>
</svg>
