<?xml version="1.0" standalone="no"?>
<!DOCTYPE svg PUBLIC "-//W3C//DTD SVG 20010904//EN"
 "http://www.w3.org/TR/2001/REC-SVG-20010904/DTD/svg10.dtd">
<svg version="1.0" xmlns="http://www.w3.org/2000/svg"
 width="1440.000000pt" height="720.000000pt" viewBox="0 0 1440.000000 720.000000"
 preserveAspectRatio="xMidYMid meet">

<g transform="translate(0.000000,720.000000) scale(0.100000,-0.100000)"
fill="#000000" stroke="none">
<path d="M2590 4730 c-89 -12 -130 -22 -130 -31 0 -5 -11 -9 -24 -9 -14 0 -28
-5 -31 -10 -4 -6 -25 -20 -48 -31 -45 -23 -77 -51 -77 -69 0 -5 -4 -10 -10
-10 -5 0 -19 -9 -30 -20 -11 -11 -18 -20 -15 -20 3 0 -4 -17 -15 -37 -11 -21
-20 -43 -20 -50 0 -6 -4 -13 -9 -15 -16 -5 -22 -141 -23 -543 0 -214 0 -439 0
-500 -1 -239 5 -559 11 -605 0 -6 43 -10 104 -10 69 0 97 3 87 10 -12 8 -11
10 7 10 12 0 24 -6 26 -12 4 -10 6 -10 6 0 1 13 31 17 31 5 0 -14 92 -14 108
-1 12 10 14 10 8 1 -5 -10 13 -13 79 -13 138 0 130 -21 125 338 -7 495 -5 825
3 855 8 25 13 27 58 27 35 0 49 -4 49 -14 0 -8 7 -16 15 -20 8 -3 15 -12 15
-20 0 -7 6 -16 14 -19 7 -3 23 -25 34 -49 12 -24 42 -74 67 -112 25 -38 45
-73 45 -77 0 -5 7 -9 15 -9 8 0 15 -7 15 -16 0 -13 72 -128 91 -144 3 -3 9
-12 13 -20 9 -19 22 -41 69 -113 20 -31 36 -60 36 -64 0 -3 6 -10 15 -15 9 -5
16 -16 16 -24 0 -9 6 -21 13 -29 40 -43 101 -138 114 -177 3 -10 10 -18 17
-18 6 0 17 -14 25 -31 7 -17 24 -41 38 -55 13 -13 22 -24 19 -24 -2 0 9 -14
26 -31 37 -36 128 -99 144 -99 6 0 17 -6 23 -14 21 -25 102 -31 286 -21 95 5
246 74 261 118 3 10 8 16 11 13 5 -5 56 51 66 74 4 8 15 29 26 45 10 17 21 52
25 79 9 59 10 1582 1 1596 -7 12 -533 14 -552 2 -28 -18 -32 -148 -21 -834 4
-231 2 -338 -5 -338 -6 0 -8 -3 -4 -6 10 -11 -20 -34 -45 -34 -13 0 -30 6 -38
13 -16 13 -80 104 -80 113 0 3 -24 38 -52 77 -29 40 -62 88 -72 107 -11 19
-22 37 -25 40 -4 3 -15 22 -26 43 -11 20 -23 37 -27 37 -5 0 -8 4 -8 10 0 8
-56 96 -70 110 -7 7 -29 43 -37 60 -4 8 -9 17 -13 20 -12 11 -70 107 -70 118
0 7 -4 12 -8 12 -8 0 -78 102 -113 166 -99 177 -194 264 -329 302 -51 15 -167
21 -230 12z"/>
<path d="M66 4694 c-3 -9 -6 -311 -6 -672 0 -600 2 -664 19 -737 10 -44 28
-96 39 -115 12 -19 29 -51 38 -70 15 -30 42 -67 83 -115 18 -21 69 -65 76 -65
3 0 16 -10 28 -23 22 -23 159 -94 194 -100 10 -2 25 -7 33 -10 8 -3 33 -8 55
-11 22 -3 64 -10 94 -16 68 -13 484 -13 576 0 145 21 346 103 410 167 19 19
35 31 35 27 0 -5 8 3 17 16 9 14 23 29 30 33 7 4 13 15 13 22 0 8 6 15 13 15
13 1 97 165 97 190 0 9 4 20 9 25 26 27 34 202 38 795 2 338 2 624 -2 637 l-5
23 -285 0 c-190 0 -286 -4 -290 -11 -4 -6 -7 -265 -6 -575 0 -319 -3 -573 -8
-582 -5 -10 -11 -39 -14 -66 -3 -26 -10 -53 -16 -59 -6 -6 -11 -18 -11 -27 0
-21 -89 -112 -101 -104 -5 3 -9 1 -9 -4 0 -18 -124 -46 -210 -46 -122 -1 -214
29 -275 90 -25 26 -45 54 -45 64 0 10 -4 20 -10 22 -23 7 -28 134 -29 681 0
318 -3 587 -6 598 -6 19 -17 20 -285 19 -240 -1 -279 -3 -284 -16z"/>
<path d="M4693 4683 c-8 -28 -7 -1096 0 -1206 3 -31 1 -60 -4 -63 -8 -5 -9
-571 -1 -605 2 -9 14 -21 27 -27 31 -14 519 -17 510 -2 -4 6 4 10 18 10 14 0
27 6 29 13 3 8 1 1840 -2 1900 0 4 -128 7 -285 7 l-285 0 -7 -27z m490 -1900
c-7 -2 -19 -2 -25 0 -7 3 -2 5 12 5 14 0 19 -2 13 -5z"/>
<path d="M5404 4675 c9 -20 15 -38 16 -40 5 -37 14 -65 21 -65 5 0 9 -9 9 -19
0 -11 6 -32 14 -48 26 -53 37 -79 40 -96 1 -9 8 -23 14 -29 7 -7 12 -21 12
-32 0 -12 7 -30 15 -40 8 -11 15 -28 15 -38 0 -10 5 -18 10 -18 6 0 10 -9 10
-21 0 -11 6 -33 14 -47 8 -15 17 -40 21 -55 3 -15 10 -25 15 -22 6 3 10 -6 10
-20 0 -23 11 -51 86 -211 13 -28 24 -56 24 -62 0 -6 11 -31 24 -55 13 -25 26
-55 29 -68 12 -49 54 -160 65 -171 7 -7 12 -20 12 -30 0 -10 5 -18 10 -18 6 0
10 -8 10 -18 0 -10 7 -27 15 -38 8 -10 15 -27 15 -37 0 -10 7 -25 15 -33 13
-13 20 -42 16 -66 0 -5 4 -8 9 -8 6 0 10 -11 10 -24 0 -13 3 -26 8 -28 12 -5
52 -85 52 -104 0 -10 13 -41 29 -70 17 -28 27 -54 24 -58 -3 -3 2 -8 11 -12 9
-3 16 -12 16 -19 0 -25 150 -163 150 -138 0 4 4 2 9 -6 10 -16 32 -23 68 -23
13 0 21 -4 18 -8 -3 -4 15 -13 40 -19 57 -14 235 -15 235 0 0 5 4 8 10 4 13
-8 128 31 171 59 47 32 96 82 104 106 4 11 11 20 16 20 5 0 9 9 9 19 0 11 7
26 15 35 8 8 15 21 15 28 0 8 11 38 25 66 14 29 25 56 25 61 0 5 6 22 14 38
13 26 35 73 79 176 10 21 17 42 17 48 0 6 11 34 24 62 55 118 76 166 76 177 0
7 6 24 14 38 8 15 22 47 31 72 25 64 35 91 50 125 7 17 20 50 30 75 10 25 22
56 27 70 5 14 16 38 24 53 8 16 14 34 14 42 0 7 7 26 15 41 8 16 15 37 15 46
0 9 5 20 10 23 6 3 10 17 10 30 0 13 4 26 9 30 5 3 12 18 16 34 3 16 13 35 21
42 8 6 14 20 14 29 0 10 3 20 8 22 10 5 42 67 42 84 0 8 4 22 10 32 17 31 48
107 55 135 l7 27 -306 0 c-209 0 -306 -3 -306 -11 0 -5 -4 -8 -10 -4 -9 5 -33
-63 -46 -131 -3 -19 -10 -34 -15 -34 -5 0 -9 -16 -9 -35 0 -19 -4 -35 -9 -35
-8 0 -89 -227 -95 -265 -1 -5 -5 -16 -9 -22 -9 -15 -166 -457 -171 -481 -2
-10 -6 -24 -9 -32 -16 -39 -50 -142 -70 -210 -11 -41 -25 -76 -29 -78 -4 -2
-8 -10 -8 -17 0 -20 -42 -26 -66 -10 -20 13 -53 71 -74 130 -26 72 -33 93 -39
120 -4 17 -13 40 -19 52 -7 12 -12 31 -12 42 0 12 -4 21 -9 21 -5 0 -11 12
-14 28 -10 47 -29 116 -43 149 -8 17 -14 40 -14 50 0 10 -4 23 -9 29 -4 5 -16
34 -26 64 -10 30 -24 69 -32 87 -7 17 -13 36 -13 42 0 6 -4 19 -9 29 -14 27
-41 126 -41 150 0 12 -4 22 -10 22 -5 0 -12 12 -16 28 -3 15 -9 36 -14 47 -4
11 -15 43 -25 70 -9 28 -21 59 -26 70 -5 11 -16 40 -24 64 -8 24 -23 50 -33
57 -13 10 -84 13 -315 14 l-297 0 14 -35z"/>
<path d="M8015 4688 c-32 -19 -71 -58 -57 -58 6 0 12 5 12 11 0 5 4 8 9 5 5
-3 26 1 47 10 48 20 186 17 195 -5 3 -8 13 -15 22 -17 29 -4 6 25 -37 46 -48
23 -157 27 -191 8z"/>
<path d="M8013 4574 c-2 -6 -2 -55 -1 -109 2 -68 7 -100 16 -103 8 -2 12 7 12
25 0 45 14 57 63 54 10 0 16 -5 13 -9 -3 -5 3 -15 12 -24 9 -8 24 -25 32 -36
25 -38 30 -27 17 40 -2 10 -7 21 -12 25 -4 4 -5 2 0 -6 6 -10 4 -12 -5 -6 -10
6 -8 13 11 29 34 30 36 75 4 110 -23 25 -30 27 -91 24 -37 -1 -68 -8 -71 -14z
m125 -36 c24 -24 14 -46 -24 -50 -44 -5 -77 19 -63 45 12 20 69 23 87 5z"/>
<path d="M12166 4054 c-35 -11 -66 -32 -106 -72 -48 -49 -62 -72 -94 -157 -21
-55 -47 -119 -58 -143 -33 -76 -228 -551 -228 -557 0 -4 -14 -37 -31 -73 -17
-37 -33 -80 -36 -97 -3 -16 -9 -35 -14 -40 -4 -6 -12 -29 -18 -50 -5 -22 -13
-51 -17 -64 l-7 -24 183 6 c178 5 184 6 202 29 9 12 18 34 18 48 0 14 7 36 15
50 8 14 14 35 15 48 0 12 6 33 14 45 8 12 19 47 26 77 7 30 17 63 22 72 4 10
13 50 18 90 5 40 13 74 19 76 6 2 11 12 11 22 0 27 35 102 59 127 12 12 21 27
21 33 0 5 3 10 8 10 7 0 36 58 66 132 17 44 53 60 73 32 7 -10 13 -25 13 -33
0 -14 2 -14 11 -1 9 13 10 12 5 -3 -7 -21 93 -326 209 -637 7 -19 20 -48 29
-65 9 -16 16 -38 16 -48 0 -10 4 -16 8 -13 5 3 6 -8 4 -25 -3 -18 0 -29 7 -29
7 0 9 -4 6 -10 -9 -15 31 -21 177 -23 76 -2 140 -6 144 -10 14 -14 65 -7 71 9
8 21 -18 95 -78 220 -27 56 -49 108 -49 115 0 8 -7 23 -15 33 -8 11 -15 28
-15 38 0 10 -4 18 -10 18 -5 0 -10 6 -10 13 0 6 -14 39 -30 72 -16 33 -30 65
-30 72 0 6 -8 26 -17 45 -9 18 -22 44 -29 58 -18 39 -64 177 -64 194 0 9 -4
16 -10 16 -5 0 -10 8 -10 18 0 9 -7 26 -15 36 -8 11 -15 28 -15 37 0 10 -8 32
-17 51 -30 60 -33 68 -33 83 0 8 -4 15 -9 15 -5 0 -13 10 -16 22 -30 91 -253
156 -389 112z"/>
<path d="M7765 4055 c-5 -2 -22 -6 -37 -9 -29 -6 -88 -52 -88 -67 0 -6 5 -7
10 -4 6 4 -1 -10 -15 -30 l-25 -37 1 -501 0 -502 27 -42 c29 -46 73 -73 137
-82 55 -8 248 -7 315 2 40 5 50 5 35 -3 -15 -8 -9 -9 25 -4 66 9 171 10 177 2
2 -5 9 -8 14 -8 6 0 7 5 4 10 -4 7 59 10 185 9 105 -1 193 0 195 3 7 7 7 249
0 256 -4 4 -151 9 -328 12 -177 3 -329 8 -337 10 -35 12 -48 36 -53 100 -8
102 -2 116 46 125 23 4 171 8 329 9 157 0 290 5 295 9 12 12 15 209 4 227 -9
13 -60 15 -335 18 l-325 3 -6 32 c-12 74 -11 118 2 136 16 24 61 29 353 36
234 6 328 13 336 26 2 5 9 60 15 124 8 98 8 118 -5 130 -12 13 -83 15 -478 14
-255 0 -467 -2 -473 -4z"/>
<path d="M9031 4048 c-44 -12 -86 -44 -102 -77 -8 -18 -13 -85 -15 -213 -1
-102 -4 -190 -7 -195 -10 -16 8 -746 18 -764 4 -5 31 -9 61 -9 30 0 53 -3 50
-8 -4 -7 208 4 231 13 9 3 12 106 11 437 -1 384 1 437 16 470 10 24 25 39 39
42 12 3 36 8 52 12 40 10 271 10 313 0 66 -15 95 -64 95 -161 0 -55 -4 -78
-21 -105 -12 -19 -22 -31 -22 -27 0 4 -10 3 -22 -4 -11 -6 -64 -15 -117 -19
-167 -14 -208 -56 -191 -197 2 -18 8 -33 13 -33 4 0 5 -4 2 -10 -3 -5 -1 -10
4 -10 6 0 11 -9 11 -20 0 -11 5 -20 10 -20 6 0 14 -8 17 -17 4 -10 11 -22 15
-28 5 -5 20 -23 34 -40 13 -16 32 -44 40 -61 8 -17 29 -45 46 -63 17 -17 28
-31 24 -31 -3 0 2 -8 12 -18 41 -44 72 -83 72 -92 0 -5 6 -10 13 -11 6 0 26
-2 42 -4 70 -9 310 -16 341 -10 36 6 48 37 19 49 -8 3 -14 9 -13 13 3 8 -58
72 -113 119 -46 40 -150 164 -154 183 -4 22 12 31 70 38 22 3 62 17 90 33 49
27 113 100 114 131 1 8 5 19 10 25 26 26 28 477 2 494 -4 3 -11 17 -15 33 -3
15 -11 27 -16 27 -6 0 -10 5 -10 11 0 16 -66 79 -81 79 -7 0 -20 7 -30 16 -9
8 -46 19 -80 24 -85 13 -834 11 -878 -2z"/>
<path d="M10565 4053 c-56 -8 -105 -24 -105 -33 0 -6 -6 -10 -14 -10 -21 0
-67 -40 -60 -52 4 -7 2 -8 -5 -4 -7 5 -18 -9 -31 -39 -17 -40 -20 -69 -20
-197 0 -144 1 -154 27 -207 15 -31 43 -69 62 -86 19 -16 43 -38 54 -48 11 -10
46 -25 76 -33 31 -9 61 -20 66 -24 6 -4 41 -13 79 -19 39 -7 75 -15 80 -19 6
-4 22 -8 36 -10 44 -5 255 -76 296 -99 34 -19 37 -61 6 -81 -23 -15 -67 -17
-393 -18 -201 -1 -371 -4 -377 -7 -11 -8 -15 -246 -4 -264 14 -22 54 -29 125
-21 40 5 250 7 467 6 371 -3 398 -2 424 16 17 10 25 13 20 5 -4 -8 5 -3 21 9
28 22 33 29 68 93 31 58 41 161 27 277 -7 56 -17 105 -22 108 -4 3 -8 18 -8
33 0 16 -7 34 -15 41 -8 7 -15 17 -15 22 0 30 -113 87 -232 118 -106 27 -251
68 -303 85 -22 7 -57 15 -77 18 -55 8 -104 35 -117 64 -11 23 -9 29 11 49 32
32 143 43 432 44 153 0 234 4 243 11 9 8 13 37 13 88 1 47 6 86 15 101 20 34
19 66 -2 76 -18 9 -794 15 -848 7z"/>
<path d="M13137 4053 c-11 -10 -8 -1049 3 -1121 8 -56 14 -69 49 -103 l41 -38
402 -2 c459 -2 535 -1 574 10 l28 7 1 132 0 132 -330 1 c-181 1 -333 1 -337 0
-18 -2 -58 63 -58 96 0 19 -6 58 -14 86 -8 29 -17 126 -21 217 -4 91 -7 170
-7 175 0 6 3 82 7 170 5 108 12 167 21 182 13 21 12 24 -13 40 -21 14 -54 18
-183 20 -86 2 -160 0 -163 -4z"/>
<path d="M3923 2753 c9 -2 25 -2 35 0 9 3 1 5 -18 5 -19 0 -27 -2 -17 -5z"/>
</g>
</svg>
