<?xml version="1.0" encoding="UTF-8" standalone="no"?>
<svg
   xmlns:dc="http://purl.org/dc/elements/1.1/"
   xmlns:cc="http://creativecommons.org/ns#"
   xmlns:rdf="http://www.w3.org/1999/02/22-rdf-syntax-ns#"
   xmlns:svg="http://www.w3.org/2000/svg"
   xmlns="http://www.w3.org/2000/svg"
   xmlns:sodipodi="http://sodipodi.sourceforge.net/DTD/sodipodi-0.dtd"
   xmlns:inkscape="http://www.inkscape.org/namespaces/inkscape"
   fill="#000000"
   width="800px"
   height="800px"
   viewBox="0 0 16 16"
   version="1.1"
   id="svg849"
   sodipodi:docname="lightbulb.svg"
   inkscape:version="1.0.1 (3bc2e813f5, 2020-09-07)">
  <metadata
     id="metadata855">
    <rdf:RDF>
      <cc:Work
         rdf:about="">
        <dc:format>image/svg+xml</dc:format>
        <dc:type
           rdf:resource="http://purl.org/dc/dcmitype/StillImage" />
        <dc:title />
      </cc:Work>
    </rdf:RDF>
  </metadata>
  <defs
     id="defs853" />
  <sodipodi:namedview
     pagecolor="#ffffff"
     bordercolor="#666666"
     borderopacity="1"
     objecttolerance="10"
     gridtolerance="10"
     guidetolerance="10"
     inkscape:pageopacity="0"
     inkscape:pageshadow="2"
     inkscape:window-width="3440"
     inkscape:window-height="1361"
     id="namedview851"
     showgrid="false"
     inkscape:zoom="0.45343223"
     inkscape:cx="1696.9242"
     inkscape:cy="398.97453"
     inkscape:window-x="-9"
     inkscape:window-y="-9"
     inkscape:window-maximized="1"
     inkscape:current-layer="svg849"
     inkscape:document-rotation="0" />
  <path
     id="rect863"
     style="fill:#ffffff;fill-opacity:1;stroke-width:0.0599993;stroke-linecap:round;paint-order:stroke fill markers"
     d="M 0,-0.03070837 V 16 H 16 V -0.03070837 Z M 7.863711,3.8881688 c 0.042178,-5.551e-4 0.0846,-3.35e-5 0.1272266,0.00157 1.3640448,-0.051272 2.5124044,1.0147384 2.5680464,2.3838895 0.02065,0.5734817 -0.241566,1.1203536 -0.7009372,1.461893 h 0.00605 C 9.3483876,8.1418274 9.033252,8.7524499 9.000039,9.409717 V 9.8040124 H 6.9878906 V 9.4400294 C 6.9633506,8.7720007 6.6473522,8.1486337 6.1238282,7.73552 5.6644562,7.3939806 5.4022436,6.8471087 5.4228906,6.273627 5.4767918,4.9472618 6.5561806,3.9053777 7.863711,3.8881688 Z" />
  <g
     id="g908"
     transform="matrix(1.2989691,0,0,1.2989691,-2.3917718,-2.3964042)">
    <path
       d="m 7.9976887,4.2938543 c -1.3711459,-0.039134 -2.515435,1.0385782 -2.5584635,2.4096074 0,1.5025158 1.2048037,1.5025158 1.2048037,2.4049556 v 1.4234357 c 0.044906,0.704654 0.6485526,1.24192 1.3536598,1.204804 0.705976,0.03719 1.3109734,-0.499436 1.3583115,-1.204804 V 9.1084173 c 0,-0.9024398 1.2048038,-0.9024398 1.2048038,-2.4049556 C 10.517792,5.3305625 9.3706267,4.2521019 7.9976887,4.2938543 Z m 1.442043,3.5306795 C 9.0427137,8.1361182 8.8001002,8.6043793 8.7745312,9.1084173 V 9.4107812 H 7.2254979 V 9.1316761 C 7.2066047,8.6193855 6.963328,8.1413381 6.5602974,7.8245338 6.2066537,7.5626172 6.0047993,7.1432475 6.0206942,6.7034617 6.0635295,5.6535013 6.9475907,4.8360047 7.9976887,4.8753233 9.0477867,4.8360048 9.9318478,5.6535013 9.9746831,6.7034617 9.990578,7.1432475 9.7887236,7.5626172 9.4350799,7.8245338 Z"
       id="path845"
       style="fill:#353f40;fill-opacity:1;stroke:#000000;stroke-width:0.0651799;stroke-miterlimit:4;stroke-dasharray:none;stroke-opacity:1"
       sodipodi:nodetypes="ccscccsccccccccccccc" />
  </g>
</svg>
