<?xml version="1.0" encoding="UTF-8" standalone="no"?>
<svg
   xmlns:dc="http://purl.org/dc/elements/1.1/"
   xmlns:cc="http://creativecommons.org/ns#"
   xmlns:rdf="http://www.w3.org/1999/02/22-rdf-syntax-ns#"
   xmlns:svg="http://www.w3.org/2000/svg"
   xmlns="http://www.w3.org/2000/svg"
   xmlns:sodipodi="http://sodipodi.sourceforge.net/DTD/sodipodi-0.dtd"
   xmlns:inkscape="http://www.inkscape.org/namespaces/inkscape"
   width="800px"
   height="800px"
   viewBox="0 0 24 24"
   fill="none"
   version="1.1"
   id="svg4"
   sodipodi:docname="mark.svg"
   inkscape:version="1.0.1 (3bc2e813f5, 2020-09-07)">
  <sodipodi:namedview
     pagecolor="#ffffff"
     bordercolor="#666666"
     borderopacity="1"
     objecttolerance="10"
     gridtolerance="10"
     guidetolerance="10"
     inkscape:pageopacity="0"
     inkscape:pageshadow="2"
     inkscape:window-width="3440"
     inkscape:window-height="1361"
     id="namedview19"
     showgrid="false"
     inkscape:zoom="1.2825"
     inkscape:cx="400"
     inkscape:cy="400"
     inkscape:window-x="-9"
     inkscape:window-y="-9"
     inkscape:window-maximized="1"
     inkscape:current-layer="svg4" />
  <metadata
     id="metadata10">
    <rdf:RDF>
      <cc:Work
         rdf:about="">
        <dc:format>image/svg+xml</dc:format>
        <dc:type
           rdf:resource="http://purl.org/dc/dcmitype/StillImage" />
        <dc:title />
      </cc:Work>
    </rdf:RDF>
  </metadata>
  <defs
     id="defs8" />
  <path
     d="m 12.070175,20.883041 c 3.5,-3.6 7,-6.8236 7,-10.8 0,-3.9764501 -3.134,-7.2000001 -7,-7.2000001 -3.8659896,0 -6.9999996,3.22355 -6.9999996,7.2000001 0,3.9764 3.5,7.2 6.9999996,10.8 z"
     stroke="#000000"
     stroke-width="2"
     stroke-linecap="round"
     stroke-linejoin="round"
     id="path2"
     style="fill:#ffcc00;fill-opacity:1;stroke-width:1.22001;stroke-miterlimit:4;stroke-dasharray:none" />
  <g
     id="g1518"
     transform="matrix(0.43111994,0,0,0.43111994,-2.1088806,5.2554708)">
    <g
       id="g870"
       transform="matrix(0.04857356,0,0,0.04857356,20.888888,-2.4327494)"
       style="fill:#000000;fill-opacity:1">
      <g
         id="g868"
         style="fill:#000000;fill-opacity:1">
        <path
           d="m 247.048,200.32 c -114.016,0 -200,85.984 -200,200 0,8.848 7.168,16 16,16 h 368 c 8.832,0 16,-7.152 16,-16 0,-114.016 -85.984,-200 -200,-200 z m -167.328,184 c 7.568,-87.696 76.944,-152 167.312,-152 90.368,0 159.76,64.304 167.328,152 z"
           id="path866"
           style="fill:#000000;fill-opacity:1" />
      </g>
    </g>
    <g
       id="g876"
       transform="matrix(0.04857356,0,0,0.04857356,20.888888,-2.4327494)"
       style="fill:#000000;fill-opacity:1">
      <g
         id="g874"
         style="fill:#000000;fill-opacity:1">
        <path
           d="m 315.592,403.456 c -2.4,-8.496 -11.232,-13.488 -19.728,-11.072 -8.512,2.384 -13.472,11.216 -11.088,19.728 0.96,3.392 1.44,6.944 1.44,10.592 0,21.728 -17.664,39.392 -39.392,39.392 -21.728,0 -39.392,-17.68 -39.392,-39.392 0,-3.584 0.48,-7.152 1.44,-10.592 2.368,-8.512 -2.608,-17.328 -11.12,-19.696 -8.512,-2.4 -17.344,2.592 -19.712,11.104 -1.744,6.224 -2.624,12.688 -2.624,19.184 0,39.36 32.032,71.392 71.392,71.392 39.36,0 71.392,-32.032 71.408,-71.392 0,-6.56 -0.88,-13.024 -2.624,-19.248 z"
           id="path872"
           style="fill:#000000;fill-opacity:1" />
      </g>
    </g>
    <g
       id="g882"
       transform="matrix(0.04857356,0,0,0.04857356,20.888888,-2.4327494)"
       style="fill:#000000;fill-opacity:1">
      <g
         id="g880"
         style="fill:#000000;fill-opacity:1">
        <path
           d="m 292.664,216.48 -5.248,-78.496 c -0.88,-17.04 -15.184,-30.4 -32.544,-30.4 h -15.6 c -17.328,0 -31.632,13.344 -32.56,30.352 l -4.336,78.32 c -0.496,8.832 6.256,16.384 15.088,16.864 8.752,0.496 16.368,-6.256 16.864,-15.072 l 4.944,-78.448 16.208,0.32 5.264,78.72 c 0.576,8.464 7.6,14.944 15.952,14.944 0.352,0 0.704,-0.016 1.072,-0.08 8.816,-0.592 15.488,-8.208 14.896,-17.024 z"
           id="path878"
           style="fill:#000000;fill-opacity:1" />
      </g>
    </g>
    <g
       id="g888"
       transform="matrix(0.04857356,0,0,0.04857356,20.888888,-2.4327494)"
       style="fill:#000000;fill-opacity:1">
      <g
         id="g886"
         style="fill:#000000;fill-opacity:1">
        <path
           d="m 247.048,0 c -8.832,0 -16,7.152 -16,16 v 92.24 c 0,8.848 7.168,16 16,16 8.832,0 16,-7.168 16,-16 V 16 c 0,-8.848 -7.168,-16 -16,-16 z"
           id="path884"
           style="fill:#000000;fill-opacity:1" />
      </g>
    </g>
  </g>
</svg>
