<?xml version="1.0" encoding="UTF-8" standalone="no"?>
<svg
   xmlns:dc="http://purl.org/dc/elements/1.1/"
   xmlns:cc="http://creativecommons.org/ns#"
   xmlns:rdf="http://www.w3.org/1999/02/22-rdf-syntax-ns#"
   xmlns:svg="http://www.w3.org/2000/svg"
   xmlns="http://www.w3.org/2000/svg"
   xmlns:sodipodi="http://sodipodi.sourceforge.net/DTD/sodipodi-0.dtd"
   xmlns:inkscape="http://www.inkscape.org/namespaces/inkscape"
   width="800px"
   height="800px"
   viewBox="0 0 48 48"
   version="1.1"
   id="svg13"
   sodipodi:docname="security.svg"
   inkscape:version="1.0.1 (3bc2e813f5, 2020-09-07)">
  <metadata
     id="metadata19">
    <rdf:RDF>
      <cc:Work
         rdf:about="">
        <dc:format>image/svg+xml</dc:format>
        <dc:type
           rdf:resource="http://purl.org/dc/dcmitype/StillImage" />
        <dc:title>security-verified</dc:title>
      </cc:Work>
    </rdf:RDF>
  </metadata>
  <defs
     id="defs17" />
  <sodipodi:namedview
     pagecolor="#ffffff"
     bordercolor="#666666"
     borderopacity="1"
     objecttolerance="10"
     gridtolerance="10"
     guidetolerance="10"
     inkscape:pageopacity="0"
     inkscape:pageshadow="2"
     inkscape:window-width="3440"
     inkscape:window-height="1361"
     id="namedview15"
     showgrid="false"
     inkscape:zoom="0.45343222"
     inkscape:cx="-82.55283"
     inkscape:cy="205.30845"
     inkscape:window-x="-9"
     inkscape:window-y="-9"
     inkscape:window-maximized="1"
     inkscape:current-layer="svg13" />
  <title
     id="title2">security-verified</title>
  <circle
     style="fill:#353f40;fill-opacity:1;stroke-width:0.119527;stroke-linecap:round;paint-order:stroke fill markers"
     id="path846"
     cx="24.023394"
     cy="-24"
     r="23.999998"
     transform="scale(1,-1)" />
  <circle
     style="fill:#ffcc00;fill-opacity:1;stroke-width:0.105897;stroke-linecap:round;paint-order:stroke fill markers"
     id="path846-9"
     cx="24.023394"
     cy="-24"
     r="21.263155"
     transform="scale(1,-1)" />
  <g
     id="Layer_2"
     data-name="Layer 2"
     transform="matrix(0.74853801,0,0,0.74853801,6.0584814,6.8290323)">
    <g
       id="invisible_box"
       data-name="invisible box">
      <rect
         width="48"
         height="48"
         fill="none"
         id="rect4"
         x="0"
         y="0" />
    </g>
    <g
       id="icons_Q2"
       data-name="icons Q2">
      <path
         d="M 24,2 C 24,2 6,7.1 6,8 v 18.2 c 0,9.2 13.3,17.3 17,19.5 0.605324,0.404449 1.394676,0.404449 2,0 3.8,-2.1 17,-10.3 17,-19.5 V 8 C 42,7.1 24,2 24,2 Z"
         id="path7"
         style="fill:#353f3f;fill-opacity:1"
         sodipodi:nodetypes="cssccssc" />
      <path
         d="m 19.6,29.4 -5,-4.9 a 2.1,2.1 0 0 1 -0.2,-2.7 1.9,1.9 0 0 1 3,-0.2 l 3.6,3.6 9.6,-9.6 a 2,2 0 0 1 2.8,2.8 l -11,11 a 1.9,1.9 0 0 1 -2.8,0 z"
         id="path9"
         style="fill:#ffcc00;fill-opacity:1" />
    </g>
  </g>
</svg>
